<?xml version="1.0"?>
<svg xmlns="http://www.w3.org/2000/svg" id="Outline" viewBox="0 0 512 512" width="512px" height="512px"><g><path d="M479.562,260.266a8,8,0,0,0-11.962-9.292c-14.065,9.263-29.644,13.578-49.029,13.578-51.832,0-94-43.189-94-96.276,0-40.023,25.841-77.786,62.84-91.832a8,8,0,0,0-.393-15.1C372.343,56.635,355.448,56,340.857,56,258.777,56,192,124.187,192,208a155.04,155.04,0,0,0,4.554,37.433A89.164,89.164,0,0,0,165.931,240c-49.132,0-89.1,39.477-89.1,88a85.563,85.563,0,0,0,2.322,19.742,75.506,75.506,0,0,0-41.7,21.526A73.68,73.68,0,0,0,16,421.333C16,462.505,49.908,496,91.586,496H341.655C387.061,496,424,459.514,424,414.667a80.857,80.857,0,0,0-31.476-63.887C432.975,335.652,464.86,302.847,479.562,260.266ZM408,414.667C408,450.691,378.238,480,341.655,480H91.586C58.73,480,32,453.682,32,421.333a57.774,57.774,0,0,1,16.834-40.82,59.754,59.754,0,0,1,40.977-17.75A8,8,0,0,0,97.1,352.054,70.808,70.808,0,0,1,92.828,328c0-39.7,32.794-72,73.1-72,30.379,0,57.9,18.9,68.484,47.022a8,8,0,0,0,10.8,4.465,53.055,53.055,0,0,1,22.1-4.82c25.082,0,46.86,17.543,51.785,41.714a8,8,0,0,0,9.394,6.25,67.892,67.892,0,0,1,13.165-1.3C378.238,349.333,408,378.642,408,414.667Zm-34.036-74.8a83.109,83.109,0,0,0-41.139-6.059c-9.038-27.719-35.463-47.138-65.514-47.138a68.644,68.644,0,0,0-21.112,3.308,88.578,88.578,0,0,0-29.83-34.367A138.189,138.189,0,0,1,208,208c0-74.991,59.6-136,132.857-136,6.163,0,12.75.116,19.293.638C328.94,93.486,308.571,130,308.571,168.276c0,61.909,49.346,112.276,110,112.276,13.858,0,26.112-1.927,37.385-5.956C438.744,307.1,409.3,330.793,373.964,339.864Z" data-original="#000000" class="active-path" data-old_color="#000000" fill="#7DA5BF"/><path d="M432,128a8,8,0,0,0-8,8v12.9l-13.47-4.49a8,8,0,1,0-5.06,15.178l14.064,4.688-10.19,15.285a8,8,0,1,0,13.312,8.876L432,174.422l9.344,14.016a8,8,0,0,0,13.312-8.876l-10.19-15.285,14.064-4.688a8,8,0,0,0-5.06-15.178L440,148.9V136A8,8,0,0,0,432,128Z" data-original="#000000" class="active-path" data-old_color="#000000" fill="#7DA5BF"/><path d="M40,220.9l-13.47-4.49a8,8,0,1,0-5.06,15.178l14.064,4.688-10.19,15.285a8,8,0,1,0,13.312,8.876L48,246.422l9.344,14.016a8,8,0,1,0,13.312-8.876l-10.19-15.285,14.064-4.688a8,8,0,0,0-5.06-15.178L56,220.9V208a8,8,0,0,0-16,0Z" data-original="#000000" class="active-path" data-old_color="#000000" fill="#7DA5BF"/><path d="M75.562,94.656a8,8,0,0,0,11.094-2.218L96,78.422l9.344,14.016a8,8,0,0,0,13.312-8.876l-10.19-15.285,14.064-4.688a8,8,0,0,0-5.06-15.178L104,52.9V40a8,8,0,0,0-16,0V52.9l-13.47-4.49a8,8,0,0,0-5.06,15.178l14.064,4.688L73.344,83.562A8,8,0,0,0,75.562,94.656Z" data-original="#000000" class="active-path" data-old_color="#000000" fill="#7DA5BF"/><circle cx="472" cy="56" r="8" data-original="#000000" class="active-path" data-old_color="#000000" fill="#7DA5BF"/><circle cx="144" cy="176" r="8" data-original="#000000" class="active-path" data-old_color="#000000" fill="#7DA5BF"/><circle cx="264" cy="24" r="8" data-original="#000000" class="active-path" data-old_color="#000000" fill="#7DA5BF"/><circle cx="488" cy="336" r="8" data-original="#000000" class="active-path" data-old_color="#000000" fill="#7DA5BF"/></g> </svg>
